<svg xmlns="http://www.w3.org/2000/svg" viewBox="0 0 186 52" fill="none">
  <defs>
    <linearGradient id="pg" x1="0" y1="0" x2="1" y2="1">
      <stop offset="0%" stop-color="#5B57FF"/>
      <stop offset="100%" stop-color="#7C3AED"/>
    </linearGradient>
    <linearGradient id="sg" x1="0" y1="0" x2="1" y2="1">
      <stop offset="0%" stop-color="#F7C843"/>
      <stop offset="100%" stop-color="#E6A817"/>
    </linearGradient>
    <filter id="glow" x="-20%" y="-20%" width="140%" height="140%">
      <feGaussianBlur stdDeviation="1.5" result="blur"/>
      <feMerge><feMergeNode in="blur"/><feMergeNode in="SourceGraphic"/></feMerge>
    </filter>
  </defs>
  <!-- Document icon -->
  <rect x="2" y="2" width="38" height="48" rx="7" fill="url(#pg)"/>
  <rect x="9" y="11" width="24" height="3" rx="1.5" fill="white"/>
  <rect x="9" y="18" width="19" height="2.5" rx="1.25" fill="rgba(255,255,255,0.75)"/>
  <rect x="9" y="24" width="22" height="2.5" rx="1.25" fill="rgba(255,255,255,0.75)"/>
  <rect x="9" y="30" width="15" height="2.5" rx="1.25" fill="rgba(255,255,255,0.5)"/>
  <path d="M30.5 36 L32 31.5 L33.5 36 L38 36 L34.7 38.8 L36 43.5 L32 40.8 L28 43.5 L29.3 38.8 L26 36 Z" fill="url(#sg)" filter="url(#glow)"/>
  <!-- ForgCV wordmark -->
  <text x="50" y="24" font-family="'Inter', -apple-system, system-ui, sans-serif" font-size="20" font-weight="900" letter-spacing="-0.05em" fill="#0F1225">Forg</text>
  <text x="90" y="24" font-family="'Inter', -apple-system, system-ui, sans-serif" font-size="20" font-weight="900" letter-spacing="-0.05em" fill="#5B57FF">CV</text>
  <text x="50" y="39" font-family="'Inter', -apple-system, system-ui, sans-serif" font-size="9" font-weight="600" letter-spacing="0.05em" fill="#9CA3AF">by Vixfor</text>
</svg>
